<?xml version="1.0" encoding="UTF-8" standalone="no"?>
<!-- Created with Inkscape (http://www.inkscape.org/) -->

<svg
   width="1024"
   height="1024"
   viewBox="0 0 270.93333 270.93333"
   version="1.1"
   id="svg1"
   inkscape:version="1.3.2 (091e20e, 2023-11-25)"
   sodipodi:docname="logo.svg"
   inkscape:export-filename="logo.png"
   inkscape:export-xdpi="96"
   inkscape:export-ydpi="96"
   xmlns:inkscape="http://www.inkscape.org/namespaces/inkscape"
   xmlns:sodipodi="http://sodipodi.sourceforge.net/DTD/sodipodi-0.dtd"
   xmlns="http://www.w3.org/2000/svg"
   xmlns:svg="http://www.w3.org/2000/svg">
  <sodipodi:namedview
     id="namedview1"
     pagecolor="#ffffff"
     bordercolor="#000000"
     borderopacity="0.25"
     inkscape:showpageshadow="2"
     inkscape:pageopacity="0.0"
     inkscape:pagecheckerboard="0"
     inkscape:deskcolor="#d1d1d1"
     inkscape:document-units="mm"
     inkscape:zoom="0.46368897"
     inkscape:cx="1302.5973"
     inkscape:cy="389.26956"
     inkscape:window-width="2256"
     inkscape:window-height="1280"
     inkscape:window-x="0"
     inkscape:window-y="25"
     inkscape:window-maximized="0"
     inkscape:current-layer="layer1"
     inkscape:export-bgcolor="#ffffff00" />
  <defs
     id="defs1" />
  <g
     inkscape:label="icon"
     inkscape:groupmode="layer"
     id="layer1">
    <path
       style="font-weight:bold;font-size:82.8125px;font-family:Merriweather;-inkscape-font-specification:'Merriweather Bold';fill:#1a1a1a;stroke-width:0.156085"
       d="m 187.31536,115.2544 -4.86983,-0.81164 v -3.87089 h 9.30263 q 2.12275,0 5.49417,-0.24974 0.81164,-0.0624 1.93544,-0.12486 1.12381,-0.0624 2.62222,-0.0624 9.4275,0 13.17352,2.68464 3.80846,2.62222 3.80846,7.86665 0,4.6201 -2.80952,7.74179 -2.74708,3.05925 -7.24231,3.74602 6.18093,-0.0624 9.67722,2.80952 3.55873,2.87195 3.55873,7.99152 0,6.49311 -4.55767,10.42643 -4.55766,3.93333 -15.23383,3.93333 -2.80952,0 -5.18199,-0.1873 -0.62434,0 -2.12275,-0.12487 -1.49841,-0.0624 -3.05926,-0.0624 h -9.42749 v -3.74603 l 4.93226,-0.62434 z m 9.0529,15.546 q 0.68677,0.0624 2.80951,0.0624 h 2.93439 q 3.80846,0 5.68147,-2.37248 1.87301,-2.37249 1.87301,-6.68041 0,-4.12064 -1.93544,-5.99364 -1.93545,-1.87302 -6.43068,-1.87302 -1.18624,0 -4.93226,0.24973 z m 0,22.03911 q 1.43597,0.5619 5.49416,0.5619 5.30687,0 7.67936,-2.49735 2.37247,-2.49735 2.37247,-7.24231 0,-4.55766 -2.18517,-6.49311 -2.12275,-1.99788 -6.80528,-1.99788 -5.24444,0 -6.55554,0.12487 z"
       id="path2"
       inkscape:label="b" />
    <path
       style="font-weight:bold;font-size:82.8125px;font-family:Merriweather;-inkscape-font-specification:'Merriweather Bold';fill:#1a1a1a;stroke-width:0.156085"
       d="m 146.68466,115.2544 -4.8074,-0.81164 v -3.87089 h 19.9788 v 3.87089 l -5.99364,0.81164 v 37.27294 l 13.36082,-0.5619 3.93332,-11.67511 5.05714,0.68677 -1.93544,15.98304 h -34.52587 v -3.74602 l 4.93227,-0.62434 z"
       id="path1"
       inkscape:label="l" />
    <path
       style="font-weight:bold;font-size:82.8125px;font-family:Merriweather;-inkscape-font-specification:'Merriweather Bold';fill:#1a1a1a;stroke-width:0.156085"
       d="M 49.039858,110.57187 H 67.76998 v 3.87089 l -5.431735,0.81164 7.866651,28.15761 1.435976,6.93015 1.435976,-6.93015 6.680411,-22.85074 -1.748145,-5.30687 -4.120627,-0.81164 v -3.87089 h 19.541761 v 3.87089 l -5.993639,0.81164 7.804218,28.15761 1.68571,7.49205 1.311109,-7.49205 7.117454,-28.15761 -5.619044,-0.81164 v -3.87089 H 114.7826 v 3.87089 l -3.99576,0.81164 -11.862421,42.01791 h -8.241256 l -8.615856,-29.15656 -8.241254,29.15656 h -8.116386 l -12.861351,-41.95548 -3.808458,-0.87407 z"
       id="text1"
       inkscape:label="w" />
    <g
       id="g8"
       inkscape:label="logo"
       transform="matrix(1.148283,0,0,1.148283,-18.622963,-14.783068)">
      <path
         id="path8"
         style="fill:#000000;stroke-width:0.507713"
         d="m 125.24682,121.84943 a 10.128242,10.128242 0 0 1 0.71428,-0.0252 10.128242,10.128242 0 0 1 10.12824,10.12824 v 0 a 10.128242,10.128242 0 0 1 -10.12824,10.12825 10.128242,10.128242 0 0 1 -0.71429,-0.0252"
         inkscape:label="l part" />
      <path
         id="path6"
         style="fill:#000000;stroke-width:0.507713"
         d="m 121.2422,140.91422 a 10.128242,10.128242 0 0 1 -5.40934,-8.96177 10.128242,10.128242 0 0 1 5.40942,-8.96181"
         inkscape:label="w part" />
    </g>
  </g>
</svg>
