<?xml version="1.0" encoding="UTF-8" standalone="no"?>
<!-- Created with Inkscape (http://www.inkscape.org/) -->

<svg
   width="1024"
   height="1024"
   viewBox="0 0 270.93333 270.93333"
   version="1.1"
   id="svg1"
   inkscape:version="1.3.2 (091e20e, 2023-11-25)"
   sodipodi:docname="logo.svg"
   inkscape:export-filename="logo.png"
   inkscape:export-xdpi="96"
   inkscape:export-ydpi="96"
   xmlns:inkscape="http://www.inkscape.org/namespaces/inkscape"
   xmlns:sodipodi="http://sodipodi.sourceforge.net/DTD/sodipodi-0.dtd"
   xmlns="http://www.w3.org/2000/svg"
   xmlns:svg="http://www.w3.org/2000/svg">
  <sodipodi:namedview
     id="namedview1"
     pagecolor="#ffffff"
     bordercolor="#000000"
     borderopacity="0.25"
     inkscape:showpageshadow="2"
     inkscape:pageopacity="0.0"
     inkscape:pagecheckerboard="0"
     inkscape:deskcolor="#d1d1d1"
     inkscape:document-units="mm"
     inkscape:zoom="2.6230209"
     inkscape:cx="666.40719"
     inkscape:cy="415.74201"
     inkscape:window-width="2256"
     inkscape:window-height="1280"
     inkscape:window-x="0"
     inkscape:window-y="25"
     inkscape:window-maximized="0"
     inkscape:current-layer="layer1" />
  <defs
     id="defs1" />
  <g
     inkscape:label="icon"
     inkscape:groupmode="layer"
     id="layer1">
    <path
       style="font-weight:bold;font-size:82.8125px;font-family:Merriweather;-inkscape-font-specification:'Merriweather Bold';fill:#1a1a1a;stroke-width:0.207032"
       d="m 205.7552,105.73002 -6.45938,-1.07657 v -5.13437 h 12.33907 q 2.81562,0 7.2875,-0.33125 1.07656,-0.08281 2.56718,-0.165625 1.49063,-0.08281 3.47813,-0.08281 12.50469,0 17.47344,3.560935 5.05156,3.47812 5.05156,10.43437 0,6.12813 -3.72656,10.26875 -3.64375,4.05782 -9.60625,4.96875 8.19843,-0.0828 12.83593,3.72657 4.72032,3.80937 4.72032,10.6 0,8.6125 -6.04532,13.82968 -6.04531,5.21719 -20.20625,5.21719 -3.72656,0 -6.87343,-0.24844 -0.82813,0 -2.81563,-0.16562 -1.9875,-0.0828 -4.05781,-0.0828 h -12.50469 v -4.96875 l 6.54219,-0.82813 z m 12.00781,20.62031 q 0.91094,0.0828 3.72656,0.0828 h 3.89219 q 5.05156,0 7.53594,-3.14687 2.48437,-3.14688 2.48437,-8.86094 0,-5.46563 -2.56718,-7.95 -2.56719,-2.48438 -8.52969,-2.48438 -1.57344,0 -6.54219,0.33125 z m 0,29.23281 q 1.90469,0.74531 7.2875,0.74531 7.03906,0 10.18594,-3.3125 3.14687,-3.3125 3.14687,-9.60625 0,-6.04531 -2.89843,-8.6125 -2.81563,-2.65 -9.02657,-2.65 -6.95625,0 -8.69531,0.16563 z"
       id="path2"
       inkscape:label="b" />
    <path
       style="font-weight:bold;font-size:82.8125px;font-family:Merriweather;-inkscape-font-specification:'Merriweather Bold';fill:#1a1a1a;stroke-width:0.207032"
       d="m 151.86238,105.73002 -6.37656,-1.07657 v -5.13437 h 26.5 v 5.13437 l -7.95,1.07657 v 49.43906 l 17.72187,-0.74531 5.21719,-15.48594 6.70781,0.91094 -2.56718,21.2 h -45.79532 v -4.96875 l 6.54219,-0.82813 z"
       id="path1"
       inkscape:label="l" />
    <path
       style="font-weight:bold;font-size:82.8125px;font-family:Merriweather;-inkscape-font-specification:'Merriweather Bold';fill:#1a1a1a;stroke-width:0.207032"
       d="m 22.345728,99.51908 h 24.84375 v 5.13437 l -7.204688,1.07657 10.434375,37.34843 1.904688,9.19219 1.904687,-9.19219 8.860938,-30.30937 -2.31875,-7.03906 -5.465625,-1.07657 v -5.13437 h 25.920312 v 5.13437 l -7.95,1.07657 10.351563,37.34843 2.235937,9.9375 1.739063,-9.9375 9.44062,-37.34843 -7.45312,-1.07657 v -5.13437 h 19.957812 v 5.13437 l -5.3,1.07657 -15.734372,55.73281 H 77.581665 L 66.15354,122.78939 55.22229,161.46283 H 44.456665 l -17.059375,-55.65 -5.051562,-1.15938 z"
       id="text1"
       inkscape:label="w" />
    <g
       id="g8"
       inkscape:label="logo">
      <path
         id="path8"
         style="fill:#000000;stroke-width:0.507713"
         d="m 125.24682,121.84943 a 10.128242,10.128242 0 0 1 0.71428,-0.0252 10.128242,10.128242 0 0 1 10.12824,10.12824 v 0 a 10.128242,10.128242 0 0 1 -10.12824,10.12825 10.128242,10.128242 0 0 1 -0.71429,-0.0252"
         inkscape:label="l part" />
      <path
         id="path6"
         style="fill:#000000;stroke-width:0.507713"
         d="m 121.2422,140.91422 a 10.128242,10.128242 0 0 1 -5.40934,-8.96177 10.128242,10.128242 0 0 1 5.40942,-8.96181"
         inkscape:label="w part" />
    </g>
  </g>
</svg>
